<?xml version="1.0" encoding="UTF-8" standalone="no"?>
<svg
   xmlns:dc="http://purl.org/dc/elements/1.1/"
   xmlns:cc="http://creativecommons.org/ns#"
   xmlns:rdf="http://www.w3.org/1999/02/22-rdf-syntax-ns#"
   xmlns:svg="http://www.w3.org/2000/svg"
   xmlns="http://www.w3.org/2000/svg"
   viewBox="0 0 388 568"
   height="568"
   width="388"
   xml:space="preserve"
   id="svg2"
   version="1.1"><metadata
     id="metadata8"><rdf:RDF><cc:Work
         rdf:about=""><dc:format>image/svg+xml</dc:format><dc:type
           rdf:resource="http://purl.org/dc/dcmitype/StillImage" /></cc:Work></rdf:RDF></metadata><defs
     id="defs6" /><g
     transform="matrix(1.3333333,0,0,-1.3333333,0,568)"
     id="g10"><g
       transform="scale(0.1)"
       id="g12"><path
         id="path14"
         style="fill:#000000;fill-opacity:1;fill-rule:nonzero;stroke:none"
         d="m 2154.07,2293.58 c -26.06,29.41 -43.59,65.03 -61.25,99.83 -25.36,49.89 -50.06,100.13 -76.82,149.29 -19.79,35.97 -46.32,67.5 -70.16,100.69 -48.8,58.03 -95.82,122.41 -123.01,193.66 -13.88,27.4 -26.54,56.15 -45.02,80.69 21.27,-77.43 47.98,-154.2 56.67,-234.37 13.4,-14.35 23.37,-31.45 31.41,-49.33 4.05,-9.22 -4.78,-15.74 -9.96,-22 4.61,-14.45 9.79,-28.72 12.66,-43.64 24.49,-96.3 20.84,-199.87 14.18,-298.17 -21.23,-272.09 -101.55,-554.73 -164.95,-821.47 -12.39,-52.94 -26.49,-105.79 -31.79,-160.07 -12.44,0.31 -24.71,0.95 -37.67,2.65 -3.31,-81.29 -9.61,-88.72 -43.63,-150.72 -5.53,-6.96 -7.09,-15.83 -7.92,-24.49 -13.28,-103.74 -15.61,-208.497 -12.02,-312.989 1.61,-46.7 12.48,-94.516 17.84,-141.582 -35.58,-39.727 -96.77,-48.364 -143.27,-38.172 -2.61,12.086 -6,23.918 -9.79,35.621 -10.53,40.89 -24.66,80.734 -39.58,120.144 -34.41,84.254 -40.67,177.688 -30.01,267.338 4.25,31.49 9.48,63.33 21.74,92.87 7.66,17.84 13.01,36.57 16.57,55.65 7.79,41.78 6.04,70.01 4.31,111.42 -5.74,2.57 -11.83,4.14 -18.05,4.83 -6.82,-19.56 -13.36,-39.21 -20.16,-58.78 -16.41,-47.15 -35.91,-93.75 -67.14,-133.04 -18.4,-23.01 -48.15,-43.33 -78.86,-34.28 -91.12,23.72 -144.21,76.53 -194.61,130.46 -55.077,58.92 -105.69,120.87 -167.862,189.47 -9.527,17.79 -2.699,38.45 4.047,55.94 14.18,28.62 43.195,51.02 75.555,53.63 15.574,1.57 32.753,2.7 46.41,-6.48 67.6,-53.72 154.07,-85.39 206.45,-156.98 -0.09,23.26 5.65,45.8 11.35,68.16 -27.19,24.05 -52.25,51.89 -69.69,83.91 22.23,39.14 29.5,84.43 34.59,128.53 49.37,426.65 -6.28,414.65 9.09,520.15 12.52,80.52 38.71,158.38 72.2,232.5 36.46,80.04 81.35,156.16 132.67,227.54 -6.52,8.79 -17.96,23.18 -5.7,32.1 15.62,13.22 17.88,35.8 15.88,54.89 -7.57,4.7 -18.05,8.18 -20.01,18.02 1.56,9.13 13.57,12.26 14.66,21.92 2.83,19.48 2.48,41.1 -6.44,58.98 -33.36,36.23 -68.29,71.39 -97.3,111.27 -33.22,45.67 -64.7,93.06 -94.1,142.54 -17,28.62 -28.22,60.36 -39.62,91.65 -6.83,-29.01 -17.84,-56.65 -28.5,-84.43 -15.29,-39.86 -29.76,-71.48 -54.46,-121.57 -8.13,-16.5 -16.21,-33.03 -24.22,-49.59 -31.66,-63.51 -64.069,-126.67 -98.823,-188.52 -10.18,-19.32 -23.316,-38.06 -42.367,-49.42 -13.051,-7.96 -27.711,1.35 -38.844,8.44 -31.101,22.01 -57.289,50.2 -81.43,79.43 -13.136,16.57 -26.144,33.75 -34.101,53.55 -16.922,41.06 -37.235,80.6 -56.895,120.36 -42.062,82.99 -84.562,165.81 -129.625,247.19 -40.543,-14.65 -77.652,-30.48 -120.386,-36.93 -16.746,-2.53 -44.649,-0.59 -59.985,4.2 -12.414,-9.46 -23.539,-15.78 -32.816,-14.5 -10.785,1.52 -11.699,13.09 -14.137,21.44 -8.961,0.09 -19.875,-3.35 -26.879,4 -3.914,4.83 -3.566,11.4 -4.699,17.14 -6.57,1.17 -15.137,1.22 -17.922,8.79 -8.355,25.23 18.539,50.32 32.711,67.81 -12.18,6.14 -28.187,7.18 -36.148,19.53 -5.215,8.13 -1.563,19.75 8.007,22.36 27.403,9.57 56.938,0.87 85.082,4.13 30.055,6.22 60.723,10.09 91.477,9.53 24.316,-0.61 47.891,-6.75 71.727,-10.84 14.136,-2.39 28.882,-0.86 42.714,-5.04 22.969,-8.44 40.063,-29.28 46.977,-52.42 30.973,-91.08 90.738,-170.59 164.426,-231.75 26.14,-23.4 56.984,-41.93 79.078,-69.69 17.574,25.54 27.23,55.42 38.324,84.13 21.574,60.51 41.234,121.79 58.07,183.78 -19.273,-8.49 -44.371,-9.13 -57.378,10.09 13.878,-1.65 30.625,-4.52 40.89,7.7 13.66,17.31 20.227,41.32 14.399,62.94 -3.524,18.7 -6.524,37.45 -9.399,56.25 -11.523,-39.37 -31.144,-78.17 -63.723,-104.23 -15.789,-12.87 -37.234,-17.65 -57.027,-12.74 3.09,5.87 10.574,5.39 16.008,7.39 27.926,6.18 51.59,25.79 65.555,50.42 15.437,27.32 23.793,58.63 24.488,89.95 0.828,32.93 7.351,65.55 18.055,96.65 -25.145,-40.5 -29.582,-89.86 -34.368,-136.23 -10.48,44.97 -1.304,91.34 10.047,135.19 -22.574,-48.11 -29.011,-102.39 -53.847,-149.72 -12.832,-25.8 -31.278,-52.42 -60.336,-60.94 -21.617,-4.74 -44.453,-1.26 -64.899,6.61 10.485,6.74 24.102,6.91 33.797,15.22 26.277,19.58 35.367,53.25 39.805,84.09 -13.879,-15.88 -25.231,-34.72 -44.371,-45.07 -24.055,-16.14 -58.852,-14.22 -80.34,5.44 15.574,-1.48 31.406,-6.7 46.976,-2.13 27.84,5.87 46.719,30.4 57.68,55.07 -32.973,65.2 -42.976,142.63 -22.617,213.27 -39.539,-62.2 -63.856,-144.03 -31.711,-214.58 -10.266,7.96 -14.918,20.44 -18.66,32.41 -8.438,28.62 -8.09,59.11 -3.656,88.39 3.609,29.05 19.273,54.5 29.191,81.6 -21.621,-8.4 -44.414,-19.14 -57.68,-39.06 -8.441,-12.27 -4.613,-27.54 -5.132,-41.37 -7.047,13.75 -6.309,30.32 -3.004,44.98 8.004,20.01 29.23,29.14 45.109,41.84 -14.137,0.18 -30.535,-1.91 -41.758,8.66 -12.531,13 -12.222,36.89 0.438,49.67 -2.262,-13.57 -8.094,-30.05 3.957,-40.93 12.699,-13 34.144,-6.69 43.367,7.22 17.836,26.36 28.012,57.38 47.933,82.43 9.176,9.66 20.661,16.92 29.665,26.84 30.101,31.67 50.89,70.86 67.816,110.79 21.66,51.59 36.883,105.7 48.238,160.46 10.309,61.3 28.969,122.76 64.766,174.26 19.45,28.23 47.81,50.98 81.95,57.9 56.29,40.27 127.37,62.72 196.62,51.23 48.23,-8.43 96.69,-28.14 130.62,-64.55 41.98,-41.54 72.99,-93.13 95.31,-147.54 17.35,-42.15 26.83,-86.96 35.27,-131.58 5.61,-33.32 -0.74,-66.6 -4.65,-99.66 -6.57,-31.49 -17.23,-62.07 -30.76,-91.21 -7.78,-17.97 -15.31,-36.98 -14.09,-56.9 1.52,-40.71 8.53,-82.95 31.06,-117.7 14.44,-22.71 38.19,-40.9 65.46,-43.94 13.62,3.44 32.58,1.48 38.19,17.62 0.27,-2.43 0.74,-7.31 1,-9.74 12.18,-2.75 25.58,-2.7 36.11,-10.27 35.27,-27.19 59.94,-67.55 67.73,-111.44 6,-23.88 0.95,-49.24 9.17,-72.64 27.8,-92.92 59.38,-185.09 102.09,-272.3 18.75,-36.24 38.58,-72.78 66.73,-102.75 21.79,-20.18 44.63,-39.54 63.07,-63.03 28.23,-35.49 48.37,-76.77 63.64,-119.35 12.39,-29.15 17.49,-63.86 29.01,-93.31 28.15,-76.21 53.85,-153.68 90.09,-226.58 10.57,-19.22 24.05,-40.85 46.5,-46.98 19.96,8.74 37.15,22.88 56.89,32.24 27.67,13.31 46.72,40.32 76.69,49.32 14,3.96 26.88,12.23 41.59,13.27 4,-10.87 -4.58,-19.18 -13.06,-24.36 -14.05,-10.83 -32.84,-14.05 -44.32,-28.41 8.52,3.22 16.7,8.27 25.96,8.97 37.02,-4.88 73.65,-14.01 108.54,-27.32 10.43,-8.48 35.43,-12.23 33.79,-21.49 -4.91,-6.39 -8.31,-15.01 -16.52,-17.83 -19.19,-8.88 -40.55,-4.09 -60.82,-5.83 -13.74,-0.87 -27.53,-0.05 -41.24,-1.22 -16.52,-6.92 -31.23,-17.62 -47.01,-25.97 -15.43,-9.47 -22.99,-17.36 -32.66,-25.65 20.37,8.24 60.32,19.27 68.71,22.24 24.61,8.69 44.06,7.3 52.9,-7.25 -9.01,-5.56 -18.75,-9.65 -28.06,-14.48 -7.3,-4.4 -13.66,-10.01 -20.27,-15.31 -14.78,-8.75 -33.05,-8.4 -47.37,-18.05 -44.78,-28.55 -142.63,-27.89 -180.38,12.13" /><path
         id="path16"
         style="fill:#ea0000;fill-opacity:1;fill-rule:nonzero;stroke:none"
         d="m 255.289,3115 c 17.004,22.93 26.051,51.11 45.801,72.16 -0.481,-8.04 -0.699,-16.13 -1.219,-24.22 -8.262,-18.1 -12.746,-37.85 -13.918,-57.68 37.277,-14.31 75.512,-26.06 113.227,-39.28 13.004,-4.05 25.621,-10 39.281,-11.7 2.695,20.92 2.91,42.06 1.777,63.07 1.219,16.1 -6,35.41 5.485,48.85 3.347,-16.79 4.695,-34.02 9.004,-50.68 5.652,-22.22 9.527,-44.8 12.57,-67.5 0.176,-6.57 8.004,-7.79 12.66,-10.23 36.231,-11.65 72.074,-24.31 108.219,-36.1 1.961,-60.2 -5.219,-120.32 -5.828,-180.52 -9.047,-168.68 -15.438,-337.46 -26.098,-506.05 -9.699,-5.1 -20.227,-8.44 -29.969,-13.49 -11.613,-9.57 -19.312,-22.88 -28.668,-34.54 -55.152,18.93 -108.613,42.76 -163.074,63.73 -110.441,43.67 -220.84,87.43 -331.23822,131.32 0.4375,19.62 5.00391,38.75 7.87502,58.11 21.0547,133.63 42.8906,267.17 63.375,400.88 12.6133,58.46 16.6172,118.53 29.1442,177.04 13.356,14.4 30.145,25.05 44.629,38.23 5.656,3.57 10.875,11.88 18.531,9.01 29.45,-10.09 58.985,-20.14 88.434,-30.41 z m 12.785,-5.61 c 2.481,0.31 7.481,0.91 9.961,1.26 2.871,12.4 6.047,24.84 6.656,37.63 -7.871,-11.66 -16.441,-24.32 -16.617,-38.89 z m 180.563,-0.52 c 0.957,-20.01 -5,-40.15 -2.004,-59.98 3.176,-0.22 9.527,-0.66 12.703,-0.87 -0.953,20.31 -1.305,42.49 -10.699,60.85 z M 2351.94,2328.46 c -30.28,-13.08 -54.94,-36.96 -71.77,-65.02 -15.58,-20.45 -22.49,-46.55 -19.58,-72.03 l 145.46,43.91 c -3.3,21.97 -14.18,44.69 -24.23,64.18 6.61,5.3 12.97,10.91 20.27,15.31 5.22,-7.57 12.49,-13.35 19.84,-18.83 17.44,-12.97 32.62,-28.67 48.8,-43.11 32.02,7.17 62.95,18.79 94.74,26.97 14.36,2.78 33.76,2.13 39.11,-14.4 100.56,-182.26 204.79,-362.43 304.87,-544.9 -10.82,-6.79 -23.44,-9.66 -35.27,-14.05 -174.13,-62.16 -348.25,-124.19 -522.28,-186.44 -13.1,-5.39 -27.32,-2.17 -40.59,0.48 -17.13,4.83 -34.45,-1.87 -51.72,-2.17 -60.85,172.6 -119.53,346.02 -179.3,519.06 -9.56,30.88 -22.79,60.59 -30.84,91.91 53.64,16.97 108.79,29.8 161.73,48.59 17.7,27.28 32.88,56.2 50.46,83.56 20.62,31.31 30.1,45.97 49.82,55.35 9.96,4.74 22.54,8.13 40.48,11.63 z m 38.76,-26.87 c 8.52,-21.63 17.92,-42.89 26.05,-64.68 l 38.46,11.04 c -14.79,23.93 -40.46,39.94 -64.51,53.64 z m -160.95,-119.27 15.93,4.91 c 2.48,15.84 5.56,35.67 9.43,51.15 -9.83,-17.96 -19.88,-36.19 -25.36,-56.06 z M 570.477,1739.59 c 21.355,12.4 40.668,31.97 66.855,32.41 27.445,3.34 52.719,-9.84 74.945,-24.23 17.356,-11.66 38.715,-14.79 56.414,-25.75 9.051,-4.87 8.184,-16.54 10.356,-25.27 9.742,-0.61 19.488,-1.96 28.707,-5.27 4.309,-14.83 7.051,-31.28 18.969,-42.32 16.312,-16.1 36.32,-28.19 56.59,-38.54 21.097,-7.61 40.539,-19.53 56.503,-35.32 18.227,-21.53 54.024,-14.75 70.554,-38.8 7.66,-10.27 -1.52,-20.88 -8.44,-28.32 -13.657,9.18 -30.836,8.05 -46.41,6.48 -32.36,-2.61 -61.375,-25.01 -75.555,-53.63 -6.746,-17.49 -13.574,-38.15 -4.047,-55.94 -5.133,-2.44 -10.266,-4.96 -15.832,-6.27 -7.656,12.84 -12.793,27.58 -23.883,38.02 -34.277,28.02 -79.078,43.02 -106.828,78.82 -4.57,-3.61 -9.18,-7.22 -13.875,-10.74 -9.355,2.22 -19.273,6.26 -28.668,1.87 -4.352,-23.62 -3.566,-47.72 -5.266,-71.6 -3.957,-37.93 -2.043,-76.17 -2.39,-114.23 0.476,-13.26 -8.914,-24.09 -17.051,-33.62 -14.184,-16.18 -41.195,-16.75 -57.594,-3.65 -46.976,32.31 -69.64,88.34 -82.949,141.71 -5.828,26.23 -11.352,53.38 -7.785,80.26 28.578,30.45 37.625,72.68 47.41,111.96 4.875,23.66 10.922,47.46 10.051,71.86 -33.715,-5.31 -66.641,-16.88 -100.785,-18.62 0.957,7.09 -1.871,15.75 3.347,21.58 34.668,10.04 65.684,29.1 96.657,47.15 z M 1597.69,695.148 c 16.72,-3.953 25.52,-24.085 27.74,-40.144 3.87,-36.102 -2.52,-72.246 -2.74,-108.438 0,-30.582 -4.78,-61.027 -3.48,-91.648 0.35,-12.008 8.53,-22.402 8.09,-34.586 0.96,-13.094 -6.56,-25.098 -5.78,-38.148 7,-61.719 13.39,-123.793 28.19,-184.254 4.87,-17.922 9.13,-38.02 24.44,-50.242 25.67,-22.579 49.9,-48.8482 61.47,-81.6021 6.34,-17.3164 5.17,-39.1054 -8.49,-52.7187 -16.18,-9.87501 -36.19,-9.30861 -54.5,-9.83595 -53.9,-1.43359 -108.88,20.05465 -145.42,60.11715 -2.73,23.1836 8.79,48.4106 -4.26,69.7266 -1.39,-10.613 1.22,-22.75 -5.52,-32.012 -8.53,-7.5271 -20.14,-3.7419 -28.8,1.172 -0.13,49.11 4.44,99.442 -8.43,147.457 -4.27,18.27 -19.71,31.711 -22.24,50.508 -2.82,23.66 -2.82,49.93 14.54,68.418 -6.53,17.184 -9.45,35.539 -17.19,52.285 -5.7,10.137 5.01,19.66 3.74,29.926 -3.13,20.879 -11.78,40.367 -23.27,57.855 -4.91,36.973 -3.87,74.469 -3.22,111.661 2.05,13.656 4.96,29.925 17.01,38.363 3.79,-11.703 7.18,-23.535 9.79,-35.621 46.5,-5.832 107.06,4.277 142.64,38.121 l -4.31,33.64" /></g></g></svg>